<?xml version="1.0" encoding="UTF-8" standalone="no"?>
<!DOCTYPE svg PUBLIC "-//W3C//DTD SVG 1.1//EN" "http://www.w3.org/Graphics/SVG/1.1/DTD/svg11.dtd">
<svg width="100%" height="100%" viewBox="0 0 566 283" version="1.1" xmlns="http://www.w3.org/2000/svg" xmlns:xlink="http://www.w3.org/1999/xlink" xml:space="preserve" xmlns:serif="http://www.serif.com/" style="fill-rule:evenodd;clip-rule:evenodd;stroke-linejoin:round;stroke-miterlimit:2;">
    <g id="Artboard2" transform="matrix(1,0,0,1,-195.476,-289.882)">
        <rect x="195.476" y="289.882" width="565.293" height="282.483" style="fill:none;"/>
        <g transform="matrix(1,0,0,0.805463,0,111.347)">
            <path d="M469.187,291.242L229.559,291.242L197.199,221.656L501.547,221.656L469.187,291.242ZM598.544,570.504L599.41,572.366L597.678,572.366L598.544,570.504ZM470.603,572.366L195.476,572.366L227.836,502.78L438.243,502.78L535.006,294.702L598.544,431.332L696.05,221.656L760.77,221.656L630.903,500.918L631.769,502.78L630.038,502.78L598.544,570.504L567.05,502.78L565.318,502.78L566.184,500.918L535.006,433.874L470.603,572.366ZM294.278,430.414L261.919,360.828L436.828,360.828L404.468,430.414L294.278,430.414Z" style="fill:rgb(86,94,121);"/>
            <clipPath id="_clip1">
                <path d="M469.187,291.242L229.559,291.242L197.199,221.656L501.547,221.656L469.187,291.242ZM598.544,570.504L599.41,572.366L597.678,572.366L598.544,570.504ZM470.603,572.366L195.476,572.366L227.836,502.78L438.243,502.78L535.006,294.702L598.544,431.332L696.05,221.656L760.77,221.656L630.903,500.918L631.769,502.78L630.038,502.78L598.544,570.504L567.05,502.78L565.318,502.78L566.184,500.918L535.006,433.874L470.603,572.366ZM294.278,430.414L261.919,360.828L436.828,360.828L404.468,430.414L294.278,430.414Z"/>
            </clipPath>
            <g clip-path="url(#_clip1)">
                <g transform="matrix(1,0,0,1.24152,0,-138.239)">
                    <path d="M338.456,572.366L260.196,572.366L292.556,516.317L327.931,516.317L349.373,553.456L338.456,572.366Z" style="fill:rgb(255,0,0);"/>
                </g>
                <g transform="matrix(1,0,0,1.24152,0,-138.239)">
                    <path d="M415.447,555.801L414.093,553.456L435.535,516.317L438.243,516.317L415.447,555.801Z" style="fill:rgb(255,0,0);"/>
                </g>
                <g transform="matrix(1,0,0,1.24152,0,-138.239)">
                    <path d="M598.544,570.866L567.05,516.317L565.318,516.317L566.184,514.817L535.006,460.816L470.603,572.366L195.476,572.366L227.836,516.317L438.243,516.317L535.006,348.718L598.544,458.768L696.05,289.882L760.77,289.882L630.903,514.817L631.769,516.317L630.038,516.317L598.544,570.866Z"/>
                </g>
                <g transform="matrix(1,0,0,1.24152,0,-138.239)">
                    <path d="M294.278,458.029L261.919,401.98L436.828,401.98L404.468,458.029L294.278,458.029Z"/>
                </g>
                <g transform="matrix(1,0,0,1.24152,195.476,221.656)">
                    <path d="M273.711,56.049L34.083,56.049L1.723,0L306.071,-0L273.711,56.049Z"/>
                </g>
            </g>
        </g>
    </g>
</svg>
